<svg xmlns="http://www.w3.org/2000/svg" xmlns:xlink="http://www.w3.org/1999/xlink" width="500" zoomAndPan="magnify" viewBox="0 0 375 374.999991" height="500" preserveAspectRatio="xMidYMid meet" version="1.0"><rect x="-37.5" width="450" fill="#ffffff" y="-37.499999" height="449.999989" fill-opacity="1"/><rect x="-37.5" width="450" fill="#ffffff" y="-37.499999" height="449.999989" fill-opacity="1"/><rect x="-37.5" width="450" fill="#ffffff" y="-37.499999" height="449.999989" fill-opacity="1"/><path fill="#3bb57c" d="M 103.902344 19.640625 L 103.902344 127.078125 C 103.902344 140.542969 103.453125 152.261719 102.558594 162.242188 C 101.660156 172.222656 99.753906 180.585938 96.839844 187.3125 C 93.921875 194.042969 89.660156 199.03125 84.054688 202.292969 C 78.449219 205.542969 70.933594 207.171875 61.507812 207.171875 C 51.863281 207.171875 43.332031 205.824219 35.929688 203.132812 C 28.527344 200.441406 23.257812 197.976562 20.117188 195.734375 L 9.691406 233.417969 C 24.042969 243.289062 41.320312 248.230469 61.515625 248.230469 C 80.027344 248.230469 94.988281 245.671875 106.398438 240.539062 C 106.296875 242.644531 106.25 244.753906 106.25 246.886719 C 106.25 264.164062 109.21875 280.253906 115.164062 295.179688 C 121.105469 310.101562 129.179688 323.054688 139.394531 334.042969 C 149.597656 345.03125 161.605469 353.675781 175.398438 359.957031 C 189.199219 366.234375 203.945312 369.375 219.65625 369.375 C 229.296875 369.375 238.492188 367.992188 247.230469 365.234375 C 228.46875 371.550781 208.367188 374.972656 187.492188 374.972656 C 84.007812 374.960938 0 290.953125 0 187.480469 C 0 114.03125 42.332031 50.386719 103.902344 19.640625 Z M 103.902344 19.640625 " fill-opacity="1" fill-rule="evenodd"/><path fill="#3bb57c" d="M 286.273438 278.84375 L 286.273438 295.671875 C 267.648438 317.4375 246.792969 328.3125 223.683594 328.3125 C 213.589844 328.3125 204.21875 326.238281 195.582031 322.089844 C 186.949219 317.941406 179.480469 312.277344 173.203125 305.09375 C 166.921875 297.917969 161.988281 289.441406 158.402344 279.683594 C 154.8125 269.929688 153.019531 259.433594 153.019531 248.222656 C 153.019531 237.457031 154.644531 227.242188 157.894531 217.597656 C 161.148438 207.957031 165.746094 199.421875 171.6875 192.023438 C 177.632812 184.621094 184.808594 178.789062 193.226562 174.519531 C 201.636719 170.257812 210.898438 168.128906 220.992188 168.128906 C 233.773438 168.128906 245.613281 171.269531 256.492188 177.546875 C 267.367188 183.828125 275.84375 192.917969 281.898438 204.804688 L 316.558594 179.230469 C 308.484375 163.308594 296.421875 150.625 280.386719 141.207031 C 264.339844 131.789062 245.109375 127.066406 222.671875 127.066406 C 206.066406 127.066406 190.707031 130.265625 176.566406 136.65625 C 166.679688 141.132812 157.691406 146.703125 149.617188 153.375 C 150.101562 145.019531 150.347656 136.246094 150.347656 127.058594 L 150.347656 5.578125 L 141.890625 5.578125 C 156.484375 1.945312 171.753906 0 187.480469 0 C 290.953125 0 374.960938 84.007812 374.960938 187.480469 C 374.960938 236.832031 355.851562 281.75 324.640625 315.242188 L 324.640625 244.855469 L 238.15625 244.855469 L 238.15625 278.84375 Z M 286.273438 278.84375 " fill-opacity="1" fill-rule="evenodd"/></svg>